<?xml version="1.0" standalone="no"?>
<!DOCTYPE svg PUBLIC "-//W3C//DTD SVG 20010904//EN"
 "http://www.w3.org/TR/2001/REC-SVG-20010904/DTD/svg10.dtd">
<svg version="1.0" xmlns="http://www.w3.org/2000/svg"
 width="600.000000pt" height="600.000000pt" viewBox="0 0 600.000000 600.000000"
 preserveAspectRatio="xMidYMid meet">
<metadata>
Created by potrace 1.11, written by Peter Selinger 2001-2013
</metadata>
<g transform="translate(0.000000,600.000000) scale(0.100000,-0.100000)"
fill="#000000" stroke="none">
<path d="M2818 5520 c-485 -35 -951 -209 -1340 -502 -465 -350 -800 -857 -938
-1420 -56 -229 -65 -310 -65 -598 0 -290 9 -373 67 -610 104 -432 340 -850
661 -1172 258 -258 586 -470 921 -593 130 -48 371 -108 521 -131 147 -22 522
-26 660 -6 489 70 928 258 1291 552 362 294 650 713 798 1160 93 283 129 504
128 805 0 697 -270 1325 -780 1816 -512 494 -1215 749 -1924 699z m452 -76
c292 -33 542 -106 805 -234 247 -120 431 -250 633 -445 411 -396 658 -891 734
-1465 15 -119 16 -473 1 -492 -6 -7 -14 -33 -17 -58 -12 -86 -39 -215 -46
-223 -4 -5 -5 3 -3 17 5 22 2 25 -12 19 -13 -4 -16 -3 -11 5 13 22 -13 12 -28
-10 l-16 -22 -1 29 c0 22 -4 15 -13 -25 -16 -70 -79 -271 -106 -341 -12 -30
-51 -116 -87 -191 -57 -118 -68 -136 -81 -125 -13 10 -14 8 -8 -17 l7 -30 -19
25 c-12 14 -17 28 -12 34 5 6 5 17 0 25 -6 8 -10 30 -10 48 0 30 2 33 23 27
19 -5 20 -4 5 5 -24 15 -23 33 1 25 36 -11 54 66 22 95 -11 11 -12 9 -7 -9 3
-11 8 -30 11 -40 4 -14 -2 -21 -26 -30 -38 -13 -44 -10 -30 17 6 12 11 24 11
29 0 4 -20 -28 -45 -71 -25 -44 -45 -83 -45 -88 0 -4 -4 -8 -9 -8 -12 0 -26
-39 -22 -62 2 -13 -2 -16 -15 -11 -14 5 -16 3 -10 -13 13 -32 12 -38 -9 -42
-17 -4 -18 -2 -6 12 8 9 12 19 9 22 -3 3 -20 -14 -37 -37 -17 -24 -28 -45 -23
-48 15 -12 14 -51 -2 -51 -9 0 -16 8 -16 17 0 22 -13 8 -15 -16 -1 -13 3 -17
13 -14 11 5 13 0 8 -18 l-7 -24 20 25 c11 14 21 34 21 44 0 10 8 25 18 32 16
13 16 14 0 8 -12 -4 -18 -1 -18 8 0 7 11 15 25 16 18 1 23 -2 19 -13 -4 -8 -1
-15 5 -15 6 0 11 7 11 16 0 10 6 14 15 10 8 -3 15 -1 15 4 0 6 -4 10 -10 10
-12 0 -13 40 -2 58 11 16 42 6 63 -21 13 -16 19 -17 37 -8 13 7 22 8 22 2 0
-15 -23 -26 -47 -22 -13 1 -23 -3 -23 -9 0 -7 -7 -9 -17 -6 -17 7 -17 6 0 -11
17 -17 16 -18 -30 -35 l-48 -18 50 6 c58 7 56 6 58 31 0 11 7 20 14 20 17 0
17 -1 -13 -47 -25 -37 -44 -51 -44 -32 0 4 -9 8 -19 8 -15 0 -17 -3 -9 -13 6
-7 17 -13 25 -13 8 0 11 -5 8 -10 -4 -6 -10 -8 -15 -5 -5 3 -12 0 -16 -6 -4
-8 -3 -9 4 -5 24 15 10 -8 -55 -93 -344 -440 -864 -753 -1419 -853 -114 -20
-161 -23 -404 -23 -221 0 -296 4 -384 18 -349 59 -699 206 -986 416 -81 58
-252 204 -285 243 -12 12 -49 55 -84 93 -214 234 -395 558 -511 913 -20 62
-39 110 -42 106 -4 -3 -5 2 -2 13 3 10 1 35 -3 57 -8 36 -9 37 -23 20 -9 -10
-10 -15 -2 -10 7 4 12 1 12 -8 0 -26 -17 -18 -28 12 l-10 27 -2 -30 -1 -30
-16 33 c-9 17 -22 32 -28 32 -10 0 -25 69 -41 185 -4 28 -11 53 -16 56 -5 3
-9 91 -9 195 -1 272 31 484 108 726 353 1116 1462 1836 2623 1702z m-2590
-2948 c0 -3 -4 -8 -10 -11 -5 -3 -10 -1 -10 4 0 6 5 11 10 11 6 0 10 -2 10 -4z
m4290 -523 c-1 -19 -16 -31 -29 -24 -7 5 -10 14 -7 20 8 12 36 15 36 4z m-45
-33 c3 -5 1 -10 -4 -10 -6 0 -11 5 -11 10 0 6 2 10 4 10 3 0 8 -4 11 -10z m50
-20 c11 -17 -5 -32 -21 -19 -7 6 -11 15 -8 20 7 12 21 11 29 -1z m-72 -45 c-7
-21 -13 -19 -13 6 0 11 4 18 10 14 5 -3 7 -12 3 -20z m88 -20 c10 -20 10 -20
-7 0 -16 20 -16 19 -10 -7 4 -16 1 -30 -6 -34 -8 -5 -9 -2 -5 10 5 13 3 17 -7
13 -20 -8 -39 16 -24 31 16 16 49 10 59 -13z"/>
<path d="M2710 5185 c-313 -44 -585 -139 -848 -297 -46 -28 -81 -53 -78 -56 3
-3 108 -4 233 -3 126 1 236 -1 246 -4 29 -12 19 -25 -19 -25 -29 0 -65 -11
-82 -25 -6 -5 30 -68 88 -155 180 -270 338 -588 581 -1173 122 -295 123 -299
141 -277 27 33 173 327 383 770 203 428 325 675 374 759 38 63 33 74 -40 92
-105 27 -49 34 239 30 157 -2 282 0 282 5 0 15 -130 93 -265 159 -217 106
-467 178 -707 204 -130 15 -410 12 -528 -4z"/>
<path d="M4269 4776 c-2 -2 -3 -497 -1 -1098 l2 -1095 63 -11 c197 -37 375
-207 422 -403 17 -75 20 -143 5 -119 -7 11 -10 -1 -10 -42 0 -31 -4 -60 -10
-63 -5 -3 -10 1 -10 10 0 9 -5 13 -10 10 -6 -4 -7 -11 -4 -17 4 -6 0 -14 -7
-19 -16 -9 -38 23 -39 56 -1 18 -1 19 -11 2 -5 -9 -20 -17 -32 -18 -12 0 -16
-3 -9 -6 9 -4 10 -8 2 -18 -8 -9 -8 -15 0 -20 5 -3 10 -1 10 6 0 7 7 4 15 -7
17 -22 20 -12 5 17 -8 13 -7 19 0 19 13 0 32 -48 24 -61 -3 -6 -10 -6 -17 -1
-7 5 -22 12 -34 14 -16 4 -20 2 -16 -9 3 -8 2 -18 -3 -22 -5 -3 -20 -28 -33
-54 -26 -52 -103 -127 -160 -157 -21 -11 -29 -19 -19 -20 9 0 20 5 23 10 12
20 26 10 15 -11 -7 -11 -9 -23 -7 -26 3 -3 13 9 22 26 9 19 20 29 27 25 7 -5
8 -3 4 5 -5 7 0 21 10 32 20 22 43 26 25 5 -10 -12 -8 -13 11 -8 21 5 22 4 9
-11 -7 -9 -9 -17 -4 -17 16 0 32 22 26 36 -7 18 11 18 26 0 10 -12 9 -20 -4
-40 -20 -30 -19 -30 -48 -15 -22 12 -22 12 -3 -10 l19 -21 29 27 c15 15 28 32
28 39 0 6 9 14 20 17 32 8 24 -7 -32 -59 -61 -57 -101 -83 -178 -116 l-55 -23
-645 -5 c-355 -3 -656 -10 -670 -14 -14 -5 31 34 100 87 217 165 342 288 429
422 48 73 90 174 92 224 l2 26 4 -24 c10 -51 20 1 11 57 -28 179 -199 247
-316 125 l-43 -45 -53 22 c-31 12 -60 18 -71 14 -32 -12 33 92 87 141 65 58
128 79 227 73 92 -5 160 -37 222 -105 21 -24 41 -43 43 -43 3 0 4 461 3 1025
-1 715 -5 1025 -13 1025 -12 0 -60 -61 -56 -73 1 -4 -27 -65 -62 -135 -35 -70
-91 -188 -126 -262 -131 -283 -389 -800 -399 -800 -6 0 -7 -7 -4 -17 4 -11 3
-14 -5 -9 -11 6 -14 0 -11 -20 0 -4 -3 -10 -9 -13 -11 -7 -103 -182 -237 -450
l-97 -195 -125 250 c-145 289 -260 505 -276 519 -7 6 -13 17 -15 25 -2 8 -10
21 -19 28 -9 6 -13 12 -8 12 5 0 1 6 -8 13 -9 6 -17 18 -19 26 -2 8 -10 22
-19 31 -71 75 -428 823 -446 936 -3 19 -11 33 -17 31 -18 -6 -23 -254 -27
-1207 -3 -953 -5 -1073 -20 -1065 -5 4 -9 2 -9 -4 0 -5 6 -12 13 -15 9 -3 7
-8 -5 -16 -10 -6 -15 -17 -11 -27 5 -12 2 -15 -9 -10 -16 6 -32 -23 -29 -50 1
-7 -4 -13 -11 -13 -9 0 -9 -3 0 -12 9 -9 7 -17 -10 -35 -23 -25 -14 -32 11 -9
12 11 21 12 31 5 12 -9 12 -10 -3 -5 -15 5 -17 2 -12 -13 9 -29 -14 -36 -38
-13 -12 12 -21 36 -23 59 -1 21 -2 43 -3 50 -1 6 -8 18 -16 26 -8 8 -16 33
-17 56 -4 54 -18 53 -18 -1 0 -58 -11 -41 -12 19 -1 26 -6 54 -11 61 -6 8 -6
12 2 12 6 0 11 12 11 28 0 15 -3 22 -8 15 -4 -6 -5 390 -3 880 2 631 -1 976
-10 1177 -7 157 -13 297 -12 313 0 15 -5 27 -12 27 -18 0 -246 -240 -239 -251
3 -5 0 -9 -6 -9 -6 0 -8 -4 -5 -10 3 -5 -3 -15 -15 -22 -11 -7 -20 -15 -20
-19 0 -3 -34 -57 -77 -120 -95 -142 -209 -375 -263 -539 -260 -791 -50 -1656
544 -2240 75 -73 76 -74 77 -45 1 17 2 35 4 40 1 6 3 46 5 90 2 60 4 73 10 50
7 -28 8 -27 9 13 1 43 15 54 40 30 7 -7 12 -8 11 -3 -5 24 1 37 15 31 13 -5
13 -2 -1 19 -15 23 -13 30 9 26 5 -1 6 3 2 9 -13 22 7 31 28 13 22 -18 22 -18
4 3 -18 22 -23 54 -8 54 17 0 42 -32 37 -46 -3 -8 0 -14 7 -14 8 -1 7 -5 -3
-13 -8 -7 -16 -17 -16 -22 -1 -6 -5 -21 -9 -35 l-7 -25 22 28 c12 15 26 25 31
22 13 -9 11 -43 -3 -48 -7 -3 -2 -6 11 -6 21 -1 22 -3 10 -19 -7 -9 -9 -14 -5
-10 5 4 15 3 23 -3 11 -10 10 -14 -7 -26 -11 -8 -20 -21 -20 -30 0 -12 3 -13
14 -4 29 24 56 -8 56 -66 0 -13 4 -23 9 -23 4 0 11 -35 15 -77 12 -125 34
-224 53 -239 33 -25 238 -123 333 -159 131 -50 336 -102 483 -121 186 -24 500
-15 667 21 580 122 1102 487 1456 1016 150 225 273 520 326 779 20 101 23 143
22 340 0 240 -10 327 -60 525 -67 265 -185 523 -343 750 -31 44 -55 83 -53 88
1 4 -2 7 -8 7 -5 0 -10 5 -10 11 0 19 -52 79 -63 72 -6 -3 -7 -1 -3 5 9 15
-162 187 -267 270 -75 59 -88 67 -98 58z m-2499 -2686 c0 -5 -2 -10 -4 -10 -3
0 -8 5 -11 10 -3 6 -1 10 4 10 6 0 11 -4 11 -10z m-162 -44 c-7 -8 -15 -12
-17 -11 -5 6 10 25 20 25 5 0 4 -6 -3 -14z m26 -22 c4 -9 4 -19 2 -21 -8 -8
-26 8 -26 23 0 19 16 18 24 -2z m-14 -48 c0 -3 -4 -8 -10 -11 -5 -3 -10 -1
-10 4 0 6 5 11 10 11 6 0 10 -2 10 -4z m30 -36 c0 -5 -4 -10 -9 -10 -6 0 -13
5 -16 10 -3 6 1 10 9 10 9 0 16 -4 16 -10z m31 -43 c-7 -7 -15 -6 -26 3 -12
10 -13 15 -3 21 17 11 42 -11 29 -24z m3053 -1 c-6 -27 -23 -36 -25 -13 0 6
-4 3 -9 -8 -13 -31 -12 -39 5 -25 8 7 15 9 15 4 0 -12 -20 -41 -20 -30 0 4
-12 1 -26 -9 -14 -9 -29 -13 -32 -9 -4 4 -1 9 6 11 6 3 12 11 12 18 0 7 7 15
15 19 8 3 15 12 15 21 0 16 39 60 46 52 3 -3 2 -16 -2 -31z m-3086 -21 c-3 -3
-9 2 -12 12 -6 14 -5 15 5 6 7 -7 10 -15 7 -18z m68 6 c0 -16 -3 -18 -15 -8
-12 10 -14 9 -8 -7 5 -12 3 -23 -5 -28 -9 -5 -8 -8 6 -8 15 0 16 -3 7 -14 -9
-11 -8 -14 5 -12 9 0 19 -5 22 -13 3 -9 0 -11 -7 -7 -7 4 -18 3 -26 -4 -10 -8
-15 -8 -20 0 -5 8 -11 6 -19 -5 -10 -14 -12 -13 -14 9 -1 19 3 26 16 26 13 0
14 2 4 9 -23 14 -7 45 33 69 11 6 20 12 20 12 1 0 1 -9 1 -19z m2930 -7 c-5
-14 -4 -15 9 -4 8 7 15 8 15 2 0 -16 -31 -23 -46 -11 -16 13 -9 29 13 29 10 0
13 -6 9 -16z m-32 -64 c-5 -5 -10 3 -11 18 -1 22 0 24 9 8 6 -10 6 -22 2 -26z
m64 -42 c-20 -36 -28 -43 -60 -46 -20 -2 -39 2 -43 8 -5 9 -1 10 13 6 16 -5
21 -2 24 16 2 18 9 22 27 20 15 -1 29 5 38 18 25 35 25 22 1 -22z m-78 -8 c0
-5 -2 -10 -4 -10 -3 0 -8 5 -11 10 -3 6 -1 10 4 10 6 0 11 -4 11 -10z m-2987
-45 c-3 -9 -8 -14 -10 -11 -3 3 -2 9 2 15 9 16 15 13 8 -4z m7 -54 c0 -12 -39
-21 -46 -10 -3 5 2 9 12 9 14 0 15 2 3 17 -13 15 -12 15 9 4 12 -6 22 -16 22
-20z m170 -67 c0 -8 -5 -12 -10 -9 -6 4 -8 11 -5 16 9 14 15 11 15 -7z"/>
<path d="M4620 1766 c0 -2 7 -9 15 -16 13 -11 14 -10 9 4 -5 14 -24 23 -24 12z"/>
<path d="M4144 2425 c-152 -33 -270 -143 -309 -290 -16 -59 -20 -65 -44 -65
-16 0 -31 -8 -39 -20 -7 -12 -17 -18 -22 -15 -15 9 1 -28 17 -41 11 -9 9 -15
-13 -29 -22 -14 -28 -15 -36 -4 -7 10 -8 8 -3 -7 4 -15 0 -24 -11 -28 -9 -4
-18 -5 -18 -4 -18 31 -23 57 -13 67 8 8 6 16 -7 30 -10 11 -13 22 -8 25 6 3
13 0 16 -6 3 -7 3 -2 0 12 l-5 25 20 -24 c20 -22 21 -22 21 -3 0 11 -7 22 -14
25 -12 5 -13 13 -6 36 13 48 -5 37 -24 -14 -30 -76 -109 -186 -209 -290 -52
-55 -93 -103 -90 -109 3 -5 1 -6 -5 -2 -14 9 -154 -103 -145 -117 3 -5 2 -7
-4 -4 -9 6 -83 -38 -83 -49 0 -2 11 3 24 11 21 14 24 14 29 0 4 -8 11 -15 16
-15 6 0 8 6 5 14 -9 24 16 28 26 4 9 -20 10 -19 5 10 -5 36 10 40 29 9 8 -13
7 -20 -4 -27 -9 -6 -10 -10 -3 -10 22 0 33 33 17 51 -14 15 -12 18 16 32 17 9
36 14 43 11 7 -2 21 9 32 25 16 24 22 28 34 18 11 -9 11 -5 -2 19 -9 17 -13
34 -10 38 11 11 43 6 43 -6 0 -7 9 2 20 20 21 34 45 44 38 15 -4 -14 1 -18 23
-18 15 0 31 4 35 8 5 4 0 5 -11 1 -18 -7 -18 -6 -7 9 8 9 21 13 30 10 14 -5
14 -3 -2 15 -11 12 -16 25 -13 29 4 3 7 1 7 -5 0 -7 7 -12 16 -12 8 0 12 4 9
10 -3 5 0 7 8 4 11 -4 13 3 10 33 -4 37 -3 38 12 15 21 -29 40 -18 20 12 -18
28 -11 37 24 30 23 -5 24 -4 7 7 -15 9 -16 13 -5 20 11 6 11 11 1 21 -15 15
-16 32 -1 23 5 -4 14 -18 19 -31 8 -21 12 -23 29 -13 21 14 51 6 51 -13 0 -9
-3 -9 -12 0 -20 20 -33 14 -66 -32 -18 -25 -66 -80 -107 -124 -41 -44 -75 -83
-75 -86 0 -3 83 -6 185 -6 154 0 185 2 185 14 0 8 -5 18 -11 22 -12 7 -72 100
-82 127 -12 31 10 18 27 -18 11 -23 21 -32 31 -29 11 5 15 -1 15 -19 0 -32 9
-57 22 -57 5 0 6 5 3 10 -3 6 -2 10 3 10 11 0 10 -48 -1 -70 -5 -8 1 -5 12 8
l20 23 17 -27 c16 -24 19 -25 30 -9 7 9 17 14 23 10 7 -3 8 0 5 9 -4 11 0 13
18 9 13 -3 31 -12 42 -19 10 -7 32 -10 52 -7 21 4 34 2 34 -5 0 -6 6 -9 13 -6
8 3 25 1 39 -5 13 -5 30 -6 37 -2 8 5 -8 11 -38 15 -27 4 -76 20 -107 37 -40
21 -60 26 -64 18 -6 -8 -9 -8 -14 0 -4 6 -1 11 6 11 7 0 -8 21 -34 48 -59 61
-98 132 -98 180 0 37 1 37 24 -21 58 -141 156 -222 299 -248 193 -36 394 101
438 299 7 28 16 52 21 52 17 0 -5 127 -32 187 -54 120 -156 201 -287 228 -80
17 -80 17 -159 0z m181 -230 c40 -23 85 -87 85 -120 0 -26 -29 -50 -43 -36 -8
8 -7 11 6 11 9 0 17 7 17 16 0 19 -31 74 -42 74 -12 0 -10 -10 12 -40 18 -25
18 -40 -1 -40 -5 0 -6 6 -4 13 3 6 -4 18 -14 24 -22 14 -55 7 -45 -9 4 -6 10
-5 15 3 4 7 11 10 16 6 4 -5 1 -12 -6 -17 -18 -10 -57 4 -53 20 1 6 -2 9 -8 5
-6 -3 -7 -11 -4 -17 11 -18 13 -78 3 -78 -6 0 -7 5 -4 10 3 6 1 10 -4 10 -15
0 -14 -11 4 -30 13 -15 12 -19 -10 -40 -27 -26 -25 -28 -30 35 -2 33 -17 75
-25 75 -5 0 -4 -14 1 -32 5 -17 7 -34 4 -36 -9 -9 -55 29 -49 40 5 8 10 5 15
-8 4 -13 6 -7 6 18 -1 21 -4 32 -8 26 -6 -9 -10 -7 -15 5 -6 17 -8 16 -21 -3
-8 -12 -12 -24 -8 -28 4 -4 10 -1 12 6 3 6 10 12 16 12 6 0 3 -8 -6 -17 -14
-14 -21 -15 -35 -7 -9 7 -16 19 -14 27 1 9 -2 18 -8 22 -9 5 -15 -14 -11 -37
0 -4 -6 -5 -15 -1 -36 14 11 110 69 140 76 39 134 38 202 -2z m-535 -139 c0
-3 -4 -8 -10 -11 -5 -3 -10 -1 -10 4 0 6 5 11 10 11 6 0 10 -2 10 -4z m30 -31
c0 -8 -4 -15 -10 -15 -5 0 -7 7 -4 15 4 8 8 15 10 15 2 0 4 -7 4 -15z m-60 -5
c0 -5 -5 -10 -11 -10 -5 0 -7 5 -4 10 3 6 8 10 11 10 2 0 4 -4 4 -10z m315 0
c3 -5 1 -10 -4 -10 -6 0 -11 5 -11 10 0 6 2 10 4 10 3 0 8 -4 11 -10z m278 -7
c-7 -2 -19 -2 -25 0 -7 3 -2 5 12 5 14 0 19 -2 13 -5z m15 -65 c-23 -42 -66
-70 -123 -82 -29 -6 -29 -6 -10 9 11 9 25 13 33 10 7 -2 11 -1 9 3 -7 10 51
77 59 69 4 -4 1 -13 -6 -22 -19 -23 -6 -28 15 -5 10 11 19 31 20 44 4 35 18
56 23 33 2 -9 -7 -36 -20 -59z m-747 29 c-10 -9 -11 -8 -5 6 3 10 9 15 12 12
3 -3 0 -11 -7 -18z m719 13 c0 -5 -4 -10 -10 -10 -5 0 -10 5 -10 10 0 6 5 10
10 10 6 0 10 -4 10 -10z m-35 -30 c-4 -13 -12 -19 -20 -16 -9 3 -12 0 -9 -8 7
-19 -15 -31 -29 -16 -9 9 -4 18 22 41 38 32 46 31 36 -1z m-125 16 c0 -3 -4
-8 -10 -11 -5 -3 -10 -1 -10 4 0 6 5 11 10 11 6 0 10 -2 10 -4z m-350 -26 c0
-5 -4 -10 -10 -10 -5 0 -10 5 -10 10 0 6 5 10 10 10 6 0 10 -4 10 -10z m320
-43 c13 4 13 3 0 -6 -12 -9 -13 -11 -1 -11 8 0 12 -3 9 -6 -9 -9 -57 26 -70
50 -9 18 -6 17 18 -5 16 -15 36 -24 44 -22z m55 33 c8 -13 -5 -13 -25 0 -13 8
-13 10 2 10 9 0 20 -4 23 -10z m-445 -10 c0 -5 -5 -10 -11 -10 -5 0 -7 5 -4
10 3 6 8 10 11 10 2 0 4 -4 4 -10z m481 -25 c1 -17 -18 -17 -25 0 -4 11 -1 15
10 13 8 -2 15 -7 15 -13z m-31 -26 c0 -5 -10 -8 -22 -8 -18 1 -19 2 -5 6 9 2
14 9 11 15 -4 7 -2 8 4 4 7 -4 12 -11 12 -17z m-470 -19 c6 -11 7 -20 2 -20
-6 0 -12 9 -15 20 -3 11 -3 20 -1 20 2 0 8 -9 14 -20z m-220 -30 c0 -5 -5 -10
-11 -10 -5 0 -7 5 -4 10 3 6 8 10 11 10 2 0 4 -4 4 -10z m45 0 c3 -5 1 -10 -4
-10 -6 0 -11 5 -11 10 0 6 2 10 4 10 3 0 8 -4 11 -10z m295 -10 c0 -5 -5 -10
-11 -10 -5 0 -7 5 -4 10 3 6 8 10 11 10 2 0 4 -4 4 -10z m15 -30 c3 -5 -1 -10
-9 -10 -9 0 -16 5 -16 10 0 6 4 10 9 10 6 0 13 -4 16 -10z m-375 -35 c-7 -9
-15 -13 -18 -10 -3 2 1 11 8 20 7 9 15 13 18 10 3 -2 -1 -11 -8 -20z m-74 -17
c-16 -22 -16 -22 -16 -1 0 12 6 23 13 26 19 7 20 0 3 -25z m453 19 c9 3 3 -4
-14 -16 -34 -23 -36 -23 -28 8 4 15 9 19 16 12 5 -5 17 -7 26 -4z m25 -58
c-13 -14 -20 -16 -25 -7 -10 16 -5 23 21 25 21 2 22 1 4 -18z m18 -24 c-4 -26
-22 -35 -22 -12 0 10 18 37 26 37 1 0 -1 -11 -4 -25z m-588 -31 c-17 -25 -34
-24 -34 2 0 8 6 13 13 12 6 -2 11 2 10 9 -2 7 4 10 12 7 12 -5 12 -9 -1 -30z"/>
<path d="M4260 2186 c0 -2 9 -6 20 -9 11 -3 18 -1 14 4 -5 9 -34 13 -34 5z"/>
<path d="M1581 2294 c0 -11 3 -14 6 -6 3 7 2 16 -1 19 -3 4 -6 -2 -5 -13z"/>
<path d="M5030 2189 c-7 -11 -10 -21 -8 -22 2 -1 13 -7 25 -14 17 -10 22 -9
26 1 3 8 -1 13 -11 12 -12 -1 -16 6 -15 22 3 28 -3 28 -17 1z"/>
<path d="M920 2181 c0 -5 7 -14 15 -21 16 -14 18 -10 9 14 -6 17 -24 22 -24 7z"/>
<path d="M3676 2163 c5 -5 12 -12 16 -18 4 -6 8 -2 8 8 0 9 -7 17 -17 17 -9 0
-12 -3 -7 -7z"/>
<path d="M933 2132 c-9 -6 -10 -17 -3 -41 11 -38 6 -51 -18 -51 -15 0 -15 -2
-2 -10 9 -6 18 -6 24 0 14 14 23 12 30 -6 4 -9 2 -13 -5 -8 -8 4 -9 -1 -4 -15
7 -24 -12 -29 -35 -8 -12 10 -12 9 -4 -3 6 -8 18 -27 27 -42 18 -29 47 -29 47
0 0 8 2 13 5 10 11 -11 -7 -58 -21 -58 -12 0 -12 -3 -2 -14 7 -8 15 -12 17
-10 5 4 51 -48 51 -58 0 -4 -8 -12 -17 -17 -16 -10 -16 -11 4 -17 13 -3 20
-10 17 -15 -3 -5 1 -6 9 -3 20 7 31 -14 17 -31 -15 -18 -6 -19 21 -5 15 8 19
7 19 -4 0 -8 -7 -19 -16 -24 -13 -7 -14 -11 -4 -17 7 -4 16 -2 20 4 5 9 10 8
19 -3 7 -8 10 -20 6 -27 -5 -8 -1 -8 15 1 21 11 22 10 15 -19 -4 -20 -3 -31 4
-31 6 0 11 4 11 9 0 5 7 12 16 15 11 4 15 2 11 -8 -7 -17 17 -28 31 -14 6 6
12 6 16 -1 4 -6 2 -11 -4 -11 -6 0 -8 -5 -4 -11 5 -8 10 -6 16 5 7 12 1 29
-24 64 -94 131 -130 186 -186 292 -53 100 -66 119 -75 113 -6 -4 -7 -1 -3 6 8
12 -11 71 -23 71 -3 0 -12 -4 -18 -8z m44 -177 c0 -8 -4 -15 -7 -15 -4 0 -13
7 -20 15 -10 12 -9 15 7 15 11 0 20 -7 20 -15z m183 -265 c0 -5 -4 -10 -10
-10 -5 0 -10 5 -10 10 0 6 5 10 10 10 6 0 10 -4 10 -10z"/>
<path d="M4995 2110 c-3 -5 -1 -10 4 -10 6 0 11 5 11 10 0 6 -2 10 -4 10 -3 0
-8 -4 -11 -10z"/>
<path d="M5030 1946 c0 -2 7 -7 16 -10 8 -3 12 -2 9 4 -6 10 -25 14 -25 6z"/>
<path d="M990 1853 c0 -12 28 -38 34 -32 2 2 -5 13 -15 23 -11 11 -19 15 -19
9z"/>
<path d="M4886 1815 c-3 -8 -1 -15 3 -15 5 0 11 7 15 15 3 8 1 15 -3 15 -5 0
-11 -7 -15 -15z"/>
<path d="M3426 1683 c-6 -14 -5 -15 5 -6 7 7 10 15 7 18 -3 3 -9 -2 -12 -12z"/>
<path d="M4693 1648 c-19 -25 -24 -38 -14 -38 5 0 13 9 16 20 4 11 11 18 16
15 5 -4 9 -1 9 4 0 15 -15 14 -27 -1z"/>
<path d="M3578 1613 c7 -3 16 -2 19 1 4 3 -2 6 -13 5 -11 0 -14 -3 -6 -6z"/>
<path d="M3718 1613 c6 -2 18 -2 25 0 6 3 1 5 -13 5 -14 0 -19 -2 -12 -5z"/>
<path d="M4228 1613 c7 -3 16 -2 19 1 4 3 -2 6 -13 5 -11 0 -14 -3 -6 -6z"/>
<path d="M1281 1595 c0 -5 6 -19 14 -29 8 -11 15 -15 15 -10 0 6 -7 19 -15 30
-8 10 -14 15 -14 9z"/>
<path d="M3290 1545 c-7 -9 -11 -17 -9 -20 3 -2 10 5 17 15 14 24 10 26 -8 5z"/>
<path d="M4544 1478 l-19 -23 23 19 c21 18 27 26 19 26 -2 0 -12 -10 -23 -22z"/>
</g>
</svg>
